<svg xmlns="http://www.w3.org/2000/svg" width="64" height="64" viewBox="0 0 64 64" fill="none" role="img" aria-label="Agent Ruler logo">
  <defs>
    <linearGradient id="ar-bg" x1="8" y1="8" x2="56" y2="56" gradientUnits="userSpaceOnUse">
      <stop offset="0" stop-color="#38BDF8"/>
      <stop offset="1" stop-color="#6366F1"/>
    </linearGradient>
  </defs>
  <rect x="4" y="4" width="56" height="56" rx="16" fill="url(#ar-bg)"/>
  <path d="M32 16L47 22V31C47 40.5 40.8 49.2 32 52C23.2 49.2 17 40.5 17 31V22L32 16Z" fill="#E2E8F0" fill-opacity="0.95"/>
  <path d="M32 20L43 24.5V31C43 38.4 38.4 45.2 32 47.6C25.6 45.2 21 38.4 21 31V24.5L32 20Z" fill="#0B1425" fill-opacity="0.25"/>
  <path d="M32 24L38.4 26.6V31.1C38.4 35.4 35.8 39.3 32 40.9C28.2 39.3 25.6 35.4 25.6 31.1V26.6L32 24Z" fill="#E2E8F0"/>
</svg>
